<svg width="100" height="100" viewBox="0 0 100 100" fill="none" xmlns="http://www.w3.org/2000/svg">
<path fill-rule="evenodd" clip-rule="evenodd" d="M90.6866 75.6125C89.9975 75.6365 89.3055 75.6486 88.6107 75.6486C57.2024 75.6486 31.4868 50.8913 31.4868 20.0428C31.4868 15.8193 31.9713 11.7029 32.8896 7.74506C16.3945 14.8876 5 30.9126 5 49.3942C5 74.4433 25.9578 95 52.1239 95C68.1038 95 82.176 87.3124 90.6866 75.6125ZM93.9717 70.3842C92.2092 70.559 90.4207 70.6486 88.6107 70.6486C59.8234 70.6486 36.4868 47.9916 36.4868 20.0428C36.4868 15.0569 37.2294 10.2394 38.6132 5.68895C39.2056 3.74114 39.9153 1.84224 40.7346 0C38.6643 0.448016 36.6403 1.0156 34.6708 1.69489C14.467 8.66347 0 27.3885 0 49.3942C0 77.343 23.3367 100 52.1239 100C71.2697 100 88.0046 89.9781 97.0666 75.043C98.159 73.2427 99.1398 71.371 100 69.4369C98.0303 69.8632 96.0185 70.1812 93.9717 70.3842Z" fill="currentcolor"/>
</svg>
